<?xml version="1.0" encoding="UTF-8" standalone="no"?>
<!-- Created with Inkscape (http://www.inkscape.org/) -->

<svg
   width="390"
   height="400"
   viewBox="0 0 103.1875 105.83334"
   version="1.1"
   id="svg3237"
   xml:space="preserve"
   inkscape:version="1.2.2 (732a01da63, 2022-12-09)"
   sodipodi:docname="logo.svg"
   xmlns:inkscape="http://www.inkscape.org/namespaces/inkscape"
   xmlns:sodipodi="http://sodipodi.sourceforge.net/DTD/sodipodi-0.dtd"
   xmlns:xlink="http://www.w3.org/1999/xlink"
   xmlns="http://www.w3.org/2000/svg"
   xmlns:svg="http://www.w3.org/2000/svg"><sodipodi:namedview
     id="namedview3239"
     pagecolor="#ffffff"
     bordercolor="#000000"
     borderopacity="0.25"
     inkscape:showpageshadow="2"
     inkscape:pageopacity="0.0"
     inkscape:pagecheckerboard="0"
     inkscape:deskcolor="#d1d1d1"
     inkscape:document-units="mm"
     showgrid="false"
     inkscape:zoom="0.79553171"
     inkscape:cx="313.62672"
     inkscape:cy="380.24883"
     inkscape:window-width="1920"
     inkscape:window-height="991"
     inkscape:window-x="327"
     inkscape:window-y="1791"
     inkscape:window-maximized="1"
     inkscape:current-layer="layer1" /><defs
     id="defs3234"><linearGradient
       inkscape:collect="always"
       id="linearGradient6148"><stop
         style="stop-color:#adadad;stop-opacity:1;"
         offset="0"
         id="stop6144" /><stop
         style="stop-color:#c4c4c4;stop-opacity:0;"
         offset="1"
         id="stop6146" /></linearGradient><linearGradient
       inkscape:collect="always"
       id="linearGradient6140"><stop
         style="stop-color:#878787;stop-opacity:1;"
         offset="0"
         id="stop6136" /><stop
         style="stop-color:#ffffff;stop-opacity:0;"
         offset="1"
         id="stop6138" /></linearGradient><linearGradient
       inkscape:collect="always"
       id="linearGradient5873"><stop
         style="stop-color:#c72682;stop-opacity:1;"
         offset="0"
         id="stop5869" /><stop
         style="stop-color:#ffffff;stop-opacity:0;"
         offset="1"
         id="stop5871" /></linearGradient><linearGradient
       inkscape:collect="always"
       xlink:href="#linearGradient5873"
       id="linearGradient5875"
       x1="77.095711"
       y1="152.82362"
       x2="176.00282"
       y2="152.82362"
       gradientUnits="userSpaceOnUse" /><linearGradient
       inkscape:collect="always"
       xlink:href="#linearGradient6140"
       id="linearGradient6142"
       x1="292.67841"
       y1="577.75409"
       x2="664.40753"
       y2="577.75409"
       gradientUnits="userSpaceOnUse"
       gradientTransform="scale(0.26458333)" /><linearGradient
       inkscape:collect="always"
       xlink:href="#linearGradient6148"
       id="linearGradient6150"
       x1="13.737924"
       y1="53.879059"
       x2="90.694328"
       y2="53.879059"
       gradientUnits="userSpaceOnUse" /></defs><g
     inkscape:label="Vrstva 1"
     inkscape:groupmode="layer"
     id="layer1"><g
       id="g7914"><circle
         style="fill:#ececec;fill-opacity:1;stroke:url(#linearGradient5875);stroke-width:0.128852;stroke-opacity:0"
         id="path5822"
         cx="51.384659"
         cy="53.380173"
         r="49.389137" /><circle
         style="fill:url(#linearGradient6150);fill-opacity:1;stroke:#c72682;stroke-width:0.100256;stroke-opacity:0"
         id="path5822-6"
         cx="52.216125"
         cy="53.879059"
         r="38.428074" /><path
         style="fill:#4e6376;fill-opacity:1;stroke:#c72682;stroke-width:0.107468;stroke-opacity:0"
         d="m 25.430706,71.780701 c 0.20266,-2.04717 0.53123,-2.96871 1.40217,-3.93274 1.79109,-1.98252 4.68107,-3.56159 11.64718,-6.36395 2.3903,-0.96158 4.55079,-1.9304 4.80108,-2.15293 0.75017,-0.66697 1.26535,-2.06258 1.2706,-3.44206 0.004,-1.06297 -0.15942,-1.612 -0.99461,-3.34035 -0.5497,-1.13756 -1.11632,-2.62548 -1.25917,-3.30648 -0.17841,-0.85057 -0.38439,-1.27776 -0.65801,-1.3646 -0.47611,-0.15111 -1.05544,-1.19648 -1.05559,-1.90473 -6e-5,-0.27912 -0.19867,-1.02989 -0.44135,-1.66838 -0.53484,-1.40717 -0.54809,-1.77571 -0.0823,-2.29033 0.31382,-0.34677 0.32767,-0.60633 0.11033,-2.06762 -0.69949,-4.70304 0.0836,-7.96137 2.44421,-10.1694 1.62615,-1.52106 3.47863,-2.29622 5.85557,-2.45021 4.38397,-0.28403 7.70788,1.07132 9.63111,3.92714 0.39817,0.59125 1.06109,1.3022 1.47316,1.57989 1.46328,0.98611 1.75341,1.70565 1.74735,4.33364 -0.003,1.28678 -0.10518,2.77239 -0.22715,3.30133 -0.20476,0.88805 -0.17899,1.00135 0.3364,1.47901 0.67009,0.62101 0.67376,0.70041 0.11681,2.52442 -0.24088,0.7889 -0.43872,1.66761 -0.43965,1.95269 -6.6e-4,0.29124 -0.29544,0.79272 -0.67216,1.14464 -0.45978,0.42949 -0.7714,1.02944 -0.9916,1.90909 -0.1766,0.70553 -0.76861,2.1536 -1.31557,3.21795 -1.23513,2.40345 -1.33871,3.79726 -0.41932,5.64222 0.68082,1.36624 0.80648,1.43944 5.97169,3.47909 6.48406,2.56042 10.27986,4.72558 11.50788,6.56419 0.59588,0.89217 1.1375,2.76685 1.14124,3.95015 l 0.003,0.82753 h -25.5197 -25.5197 z"
         id="path4488" /><path
         style="fill:#ececec;fill-opacity:1;stroke:#c72682;stroke-width:0.16197;stroke-opacity:0"
         d="m 46.063269,102.39445 c -0.640231,-0.0804 -2.641195,-0.43997 -4.44659,-0.79897 C 32.091007,99.701277 23.663779,95.158905 16.634856,88.129979 9.6562167,81.15134 5.2975768,73.107964 3.1052208,63.162576 2.0489671,58.37099 2.0411724,48.357432 3.0900072,43.622787 5.2982276,33.654489 9.6612888,25.603938 16.634853,18.630376 23.608415,11.656814 31.658964,7.2937499 41.627262,5.0855321 c 4.74539,-1.0512187 14.769396,-1.0512187 19.514783,0 9.968299,2.2082178 18.018847,6.5712819 24.992409,13.5448439 6.97864,6.978639 11.337279,15.022012 13.529635,24.967403 1.048471,4.756285 1.053641,14.786538 0.01008,19.515899 -1.008846,4.571939 -2.142995,7.824002 -4.202726,12.050935 -2.37476,4.873418 -5.297585,8.935712 -9.332108,12.970232 -6.954801,6.954805 -15.25919,11.437543 -25.021164,13.506515 -3.169264,0.6717 -12.133392,1.12011 -15.05489,0.75309 z M 60.260083,91.615841 c 15.00029,-3.106058 27.244476,-15.744566 29.876705,-30.83887 0.631952,-3.623895 0.631952,-10.17193 0,-13.795827 -2.7207,-15.601638 -15.422425,-28.291031 -31.062332,-31.032178 -3.672589,-0.643678 -10.044075,-0.643678 -13.716664,0 -15.531187,2.722092 -28.075178,15.167187 -31.039725,30.795018 -0.656638,3.461512 -0.667708,10.333691 -0.0226,14.032987 2.633999,15.104472 14.884635,27.734355 29.921959,30.848265 4.48323,0.928383 11.53374,0.924253 16.042664,-0.0094 z"
         id="path6050" /><path
         style="fill:#ececec;fill-opacity:1;stroke:#c72682;stroke-width:0.16197;stroke-opacity:0"
         d="M 45.896976,102.39652 C 39.003315,101.34151 34.009202,99.793058 28.834542,97.106236 24.078337,94.636686 20.53293,92.028056 16.634856,88.129979 9.6531661,81.148289 5.2830564,73.081191 3.1095123,63.162576 2.1287813,58.687167 2.0304886,48.709664 2.923796,44.310569 7.0170112,24.153468 22.197773,8.9670436 42.289734,4.9299412 46.786561,4.0263892 56.706554,4.1149849 61.281166,5.0995524 80.904414,9.3229611 95.838641,24.491936 99.810028,44.234041 c 0.925042,4.598474 0.859742,14.125726 -0.129262,18.858611 -4.074988,19.500939 -18.907553,34.366136 -38.484799,38.569458 -2.922733,0.62753 -12.875535,1.1053 -15.298991,0.73441 z M 59.604387,91.656925 c 8.086852,-1.58011 14.667442,-5.223579 20.544158,-11.374665 6.973662,-7.299251 10.480444,-16.133823 10.480444,-26.403202 0,-10.711783 -3.550218,-19.319901 -11.130684,-26.988285 -5.262671,-5.323708 -10.34786,-8.294846 -17.708753,-10.346748 -3.01983,-0.841798 -3.709538,-0.907153 -9.573429,-0.907153 -5.875766,0 -6.549385,0.06416 -9.600502,0.914358 -7.356752,2.049983 -12.471079,5.065437 -17.837906,10.517396 -5.08276,5.163383 -8.064323,10.374405 -10.044052,17.554485 -0.620082,2.248908 -0.719277,3.489044 -0.727064,9.089654 -0.0083,5.980867 0.059,6.735646 0.865182,9.701403 3.528909,12.981993 13.316437,23.315438 25.790864,27.229392 5.58797,1.753275 13.098533,2.155082 18.941742,1.013365 z"
         id="path6052" /><path
         style="fill:#ececec;fill-opacity:1;stroke:#c72682;stroke-width:0.16197;stroke-opacity:0"
         d="M 42.737401,101.91492 C 27.02072,98.895081 14.15644,89.179243 7.3185859,75.164613 3.4672025,67.270944 2.3351087,62.321706 2.3355928,53.380176 2.3358574,46.780896 2.7329917,43.895041 4.3660556,38.621972 6.3298566,32.28097 11.252181,23.987757 15.90786,19.176148 22.679212,12.178003 31.685684,7.2223415 41.510684,5.0886172 c 2.830391,-0.6146853 4.45678,-0.7380156 9.873972,-0.7487444 5.599399,-0.011086 6.957113,0.09253 9.937861,0.7584466 11.200509,2.5022678 21.009399,8.4142106 27.960923,16.8524076 5.589876,6.78534 9.457333,15.35716 10.80413,23.946247 0.68377,4.360632 0.43907,13.68644 -0.462504,17.627099 -0.984917,4.304935 -1.863071,6.825898 -3.833789,11.005863 -2.731523,5.793665 -5.2951,9.345472 -10.302059,14.2734 -6.406431,6.305304 -15.049117,10.882534 -24.289266,12.863764 -4.658807,0.99892 -13.907362,1.12306 -18.462551,0.24782 z M 61.294882,91.317798 c 9.010943,-2.237936 16.971533,-7.699396 22.485397,-15.42638 2.151523,-3.015094 4.72032,-8.561493 5.752968,-12.421486 0.791109,-2.957145 0.876993,-3.863332 0.893228,-9.42458 0.01529,-5.242351 -0.08831,-6.574536 -0.700154,-9.002422 C 86.11691,30.720352 75.379975,19.964444 61.12164,16.387706 56.909826,15.331162 47.555345,15.322473 43.379997,16.371223 29.135175,19.949204 18.626946,30.381574 14.744485,44.800016 c -0.648306,2.40764 -0.74204,3.566417 -0.734407,9.07904 0.008,5.756055 0.08652,6.608913 0.881423,9.570966 1.629478,6.071896 4.95264,12.063957 9.231788,16.646027 6.122085,6.555465 14.025891,10.658888 23.104033,11.994928 2.577468,0.37933 11.373644,-0.10413 14.06756,-0.773182 z"
         id="path6054" /><path
         style="fill:url(#linearGradient6142);fill-opacity:1;stroke:#c72682;stroke-width:0.16197;stroke-opacity:0"
         d="M 45.398093,102.38095 C 27.990537,99.628255 14.577051,90.041316 7.3185859,75.164613 3.4253825,67.185229 2.3677238,62.543813 2.3544894,53.380176 2.3446204,46.553048 2.5802213,44.64138 4.034993,39.74412 9.343892,21.872564 23.564968,8.8562732 42.072228,4.9293301 c 4.023963,-0.853821 14.625627,-0.8511937 18.616895,0.0046 10.141207,2.1744728 18.338022,6.5795549 25.466919,13.6862789 9.849611,9.818978 14.867228,22.609434 14.353708,36.589184 -0.20538,5.590831 -0.7583,8.745701 -2.39828,13.684041 -5.965643,17.963845 -21.991206,31.136546 -40.573957,33.351006 -2.830674,0.33732 -10.3358,0.42172 -12.13942,0.13651 z M 60.364501,91.497326 C 71.556643,89.056105 81.401236,81.377609 86.642674,71.001114 90.724324,62.920649 91.721208,52.407782 89.259702,43.402575 88.438189,40.397136 85.899928,34.986409 84.051596,32.300637 78.429139,24.130746 69.671937,18.266518 59.865621,16.104589 57.288513,15.536431 47.59857,15.519757 44.803599,16.07866 37.363365,17.566489 30.696619,21.186904 25.110301,26.773224 16.527814,35.355712 12.898524,45.74152 14.092988,58.301082 c 1.016008,10.683118 7.362018,21.141227 16.642641,27.426764 4.607523,3.120562 10.257115,5.355309 15.82652,6.260324 2.363729,0.384101 11.237865,0.06851 13.802352,-0.490855 z"
         id="path6056" /></g></g></svg>
